<svg xmlns="http://www.w3.org/2000/svg" viewBox="0 0 1899 12" width="1899" height="12">
	<style>
		tspan { white-space:pre }
		.shp0 { opacity: 0.102;fill: #000000 } 
	</style>
	<g id="Header">
		<path id="Path" class="shp0" d="M951 2L949 2L949 10L946 10L946 4L945 4L945 10L941 10L941 4L940 4L940 10L936 10L936 4L935 4L935 10L931 10L931 4L930 4L930 10L927 10L927 2L925 2L925 10L921 10L921 4L920 4L920 10L916 10L916 4L915 4L915 10L911 10L911 4L910 4L910 10L906 10L906 4L905 4L905 10L902 10L902 2L900 2L900 10L896 10L896 4L895 4L895 10L891 10L891 4L890 4L890 10L886 10L886 4L885 4L885 10L881 10L881 4L880 4L880 10L877 10L877 2L875 2L875 10L871 10L871 4L870 4L870 10L866 10L866 4L865 4L865 10L861 10L861 4L860 4L860 10L856 10L856 4L855 4L855 10L852 10L852 2L850 2L850 10L846 10L846 4L845 4L845 10L841 10L841 4L840 4L840 10L836 10L836 4L835 4L835 10L831 10L831 4L830 4L830 10L827 10L827 2L825 2L825 10L821 10L821 4L820 4L820 10L816 10L816 4L815 4L815 10L811 10L811 4L810 4L810 10L806 10L806 4L805 4L805 10L802 10L802 2L800 2L800 10L796 10L796 4L795 4L795 10L791 10L791 4L790 4L790 10L786 10L786 4L785 4L785 10L781 10L781 4L780 4L780 10L777 10L777 2L775 2L775 10L771 10L771 4L770 4L770 10L766 10L766 4L765 4L765 10L761 10L761 4L760 4L760 10L756 10L756 4L755 4L755 10L752 10L752 2L750 2L750 10L746 10L746 4L745 4L745 10L741 10L741 4L740 4L740 10L736 10L736 4L735 4L735 10L731 10L731 4L730 4L730 10L727 10L727 2L725 2L725 10L721 10L721 4L720 4L720 10L716 10L716 4L715 4L715 10L711 10L711 4L710 4L710 10L706 10L706 4L705 4L705 10L702 10L702 2L700 2L700 10L696 10L696 4L695 4L695 10L691 10L691 4L690 4L690 10L686 10L686 4L685 4L685 10L681 10L681 4L680 4L680 10L677 10L677 2L675 2L675 10L671 10L671 4L670 4L670 10L666 10L666 4L665 4L665 10L661 10L661 4L660 4L660 10L656 10L656 4L655 4L655 10L652 10L652 2L650 2L650 10L646 10L646 4L645 4L645 10L641 10L641 4L640 4L640 10L636 10L636 4L635 4L635 10L631 10L631 4L630 4L630 10L627 10L627 2L625 2L625 10L621 10L621 4L620 4L620 10L616 10L616 4L615 4L615 10L611 10L611 4L610 4L610 10L606 10L606 4L605 4L605 10L602 10L602 2L600 2L600 10L596 10L596 4L595 4L595 10L591 10L591 4L590 4L590 10L586 10L586 4L585 4L585 10L581 10L581 4L580 4L580 10L577 10L577 2L575 2L575 10L571 10L571 4L570 4L570 10L566 10L566 4L565 4L565 10L561 10L561 4L560 4L560 10L556 10L556 4L555 4L555 10L552 10L552 2L550 2L550 10L546 10L546 4L545 4L545 10L541 10L541 4L540 4L540 10L536 10L536 4L535 4L535 10L531 10L531 4L530 4L530 10L527 10L527 2L525 2L525 10L521 10L521 4L520 4L520 10L516 10L516 4L515 4L515 10L511 10L511 4L510 4L510 10L506 10L506 4L505 4L505 10L502 10L502 2L500 2L500 10L496 10L496 4L495 4L495 10L491 10L491 4L490 4L490 10L486 10L486 4L485 4L485 10L481 10L481 5L480 5L480 10L477 10L477 2L475 2L475 10L472 10L472 4L471 4L471 10L467 10L467 4L466 4L466 10L462 10L462 4L461 4L461 10L457 10L457 4L456 4L456 10L453 10L453 2L451 2L451 10L447 10L447 4L446 4L446 10L442 10L442 4L441 4L441 10L437 10L437 4L436 4L436 10L432 10L432 4L431 4L431 10L428 10L428 2L426 2L426 10L422 10L422 4L421 4L421 10L417 10L417 4L416 4L416 10L412 10L412 4L411 4L411 10L407 10L407 4L406 4L406 10L403 10L403 2L401 2L401 10L397 10L397 4L396 4L396 10L392 10L392 4L391 4L391 10L387 10L387 4L386 4L386 10L382 10L382 4L381 4L381 10L378 10L378 2L376 2L376 10L372 10L372 4L371 4L371 10L367 10L367 4L366 4L366 10L362 10L362 4L361 4L361 10L357 10L357 4L356 4L356 10L353 10L353 2L351 2L351 10L347 10L347 4L346 4L346 10L342 10L342 4L341 4L341 10L337 10L337 4L336 4L336 10L332 10L332 4L331 4L331 10L328 10L328 2L326 2L326 10L322 10L322 4L321 4L321 10L317 10L317 4L316 4L316 10L312 10L312 4L311 4L311 10L307 10L307 4L306 4L306 10L303 10L303 2L301 2L301 10L297 10L297 4L296 4L296 10L292 10L292 4L291 4L291 10L287 10L287 4L286 4L286 10L282 10L282 4L281 4L281 10L278 10L278 2L276 2L276 10L272 10L272 4L271 4L271 10L267 10L267 4L266 4L266 10L262 10L262 4L261 4L261 10L257 10L257 4L256 4L256 10L253 10L253 2L251 2L251 10L247 10L247 4L246 4L246 10L242 10L242 4L241 4L241 10L237 10L237 4L236 4L236 10L232 10L232 4L231 4L231 10L228 10L228 2L226 2L226 10L222 10L222 4L221 4L221 10L217 10L217 4L216 4L216 10L212 10L212 4L211 4L211 10L207 10L207 4L206 4L206 10L203 10L203 2L201 2L201 10L197 10L197 4L196 4L196 10L192 10L192 4L191 4L191 10L187 10L187 4L186 4L186 10L182 10L182 4L181 4L181 10L178 10L178 2L176 2L176 10L172 10L172 4L171 4L171 10L167 10L167 4L166 4L166 10L162 10L162 4L161 4L161 10L157 10L157 4L156 4L156 10L153 10L153 2L151 2L151 10L147 10L147 4L146 4L146 10L142 10L142 4L141 4L141 10L137 10L137 4L136 4L136 10L132 10L132 4L131 4L131 10L128 10L128 2L126 2L126 10L122 10L122 4L121 4L121 10L117 10L117 4L116 4L116 10L112 10L112 4L111 4L111 10L107 10L107 4L106 4L106 10L103 10L103 2L101 2L101 10L97 10L97 4L96 4L96 10L92 10L92 4L91 4L91 10L87 10L87 4L86 4L86 10L82 10L82 4L81 4L81 10L78 10L78 2L76 2L76 10L72 10L72 4L71 4L71 10L67 10L67 4L66 4L66 10L62 10L62 4L61 4L61 10L57 10L57 4L56 4L56 10L53 10L53 2L51 2L51 10L47 10L47 4L46 4L46 10L42 10L42 4L41 4L41 10L37 10L37 4L36 4L36 10L32 10L32 4L31 4L31 10L28 10L28 2L26 2L26 10L22 10L22 4L21 4L21 10L17 10L17 4L16 4L16 10L12 10L12 4L11 4L11 10L7 10L7 5L6 5L6 10L3 10L3 2L1 2L1 11L1898 11L1898 10L1894 10L1894 4L1893 4L1893 10L1889 10L1889 4L1888 4L1888 10L1884 10L1884 4L1883 4L1883 10L1879 10L1879 4L1878 4L1878 10L1875 10L1875 2L1873 2L1873 10L1869 10L1869 4L1868 4L1868 10L1864 10L1864 4L1863 4L1863 10L1859 10L1859 4L1858 4L1858 10L1854 10L1854 4L1853 4L1853 10L1850 10L1850 2L1848 2L1848 10L1844 10L1844 4L1843 4L1843 10L1839 10L1839 4L1838 4L1838 10L1834 10L1834 4L1833 4L1833 10L1829 10L1829 4L1828 4L1828 10L1825 10L1825 2L1823 2L1823 10L1819 10L1819 4L1818 4L1818 10L1814 10L1814 4L1813 4L1813 10L1809 10L1809 4L1808 4L1808 10L1804 10L1804 4L1803 4L1803 10L1800 10L1800 2L1798 2L1798 10L1794 10L1794 4L1793 4L1793 10L1789 10L1789 4L1788 4L1788 10L1784 10L1784 4L1783 4L1783 10L1779 10L1779 4L1778 4L1778 10L1775 10L1775 2L1773 2L1773 10L1769 10L1769 4L1768 4L1768 10L1764 10L1764 4L1763 4L1763 10L1759 10L1759 4L1758 4L1758 10L1754 10L1754 4L1753 4L1753 10L1750 10L1750 2L1748 2L1748 10L1744 10L1744 4L1743 4L1743 10L1739 10L1739 4L1738 4L1738 10L1734 10L1734 4L1733 4L1733 10L1729 10L1729 4L1728 4L1728 10L1725 10L1725 2L1723 2L1723 10L1719 10L1719 4L1718 4L1718 10L1714 10L1714 4L1713 4L1713 10L1709 10L1709 4L1708 4L1708 10L1704 10L1704 4L1703 4L1703 10L1700 10L1700 2L1698 2L1698 10L1694 10L1694 4L1693 4L1693 10L1689 10L1689 4L1688 4L1688 10L1684 10L1684 4L1683 4L1683 10L1679 10L1679 4L1678 4L1678 10L1675 10L1675 2L1673 2L1673 10L1669 10L1669 4L1668 4L1668 10L1664 10L1664 4L1663 4L1663 10L1659 10L1659 4L1658 4L1658 10L1654 10L1654 4L1653 4L1653 10L1650 10L1650 2L1648 2L1648 10L1644 10L1644 4L1643 4L1643 10L1639 10L1639 4L1638 4L1638 10L1634 10L1634 4L1633 4L1633 10L1629 10L1629 4L1628 4L1628 10L1625 10L1625 2L1623 2L1623 10L1619 10L1619 4L1618 4L1618 10L1614 10L1614 4L1613 4L1613 10L1609 10L1609 4L1608 4L1608 10L1604 10L1604 4L1603 4L1603 10L1600 10L1600 2L1598 2L1598 10L1594 10L1594 4L1593 4L1593 10L1589 10L1589 4L1588 4L1588 10L1584 10L1584 4L1583 4L1583 10L1579 10L1579 4L1578 4L1578 10L1575 10L1575 2L1573 2L1573 10L1569 10L1569 4L1568 4L1568 10L1564 10L1564 4L1563 4L1563 10L1559 10L1559 4L1558 4L1558 10L1554 10L1554 4L1553 4L1553 10L1550 10L1550 2L1548 2L1548 10L1544 10L1544 4L1543 4L1543 10L1539 10L1539 4L1538 4L1538 10L1534 10L1534 4L1533 4L1533 10L1529 10L1529 4L1528 4L1528 10L1525 10L1525 2L1523 2L1523 10L1519 10L1519 4L1518 4L1518 10L1514 10L1514 4L1513 4L1513 10L1509 10L1509 4L1508 4L1508 10L1504 10L1504 4L1503 4L1503 10L1500 10L1500 2L1498 2L1498 10L1494 10L1494 4L1493 4L1493 10L1489 10L1489 4L1488 4L1488 10L1484 10L1484 4L1483 4L1483 10L1479 10L1479 4L1478 4L1478 10L1475 10L1475 2L1473 2L1473 10L1469 10L1469 4L1468 4L1468 10L1464 10L1464 4L1463 4L1463 10L1459 10L1459 4L1458 4L1458 10L1454 10L1454 4L1453 4L1453 10L1450 10L1450 2L1448 2L1448 10L1444 10L1444 4L1443 4L1443 10L1439 10L1439 4L1438 4L1438 10L1434 10L1434 4L1433 4L1433 10L1429 10L1429 5L1428 5L1428 10L1425 10L1425 2L1423 2L1423 10L1420 10L1420 4L1419 4L1419 10L1415 10L1415 4L1414 4L1414 10L1410 10L1410 4L1409 4L1409 10L1405 10L1405 4L1404 4L1404 10L1401 10L1401 2L1399 2L1399 10L1395 10L1395 4L1394 4L1394 10L1390 10L1390 4L1389 4L1389 10L1385 10L1385 4L1384 4L1384 10L1380 10L1380 4L1379 4L1379 10L1376 10L1376 2L1374 2L1374 10L1370 10L1370 4L1369 4L1369 10L1365 10L1365 4L1364 4L1364 10L1360 10L1360 4L1359 4L1359 10L1355 10L1355 4L1354 4L1354 10L1351 10L1351 2L1349 2L1349 10L1345 10L1345 4L1344 4L1344 10L1340 10L1340 4L1339 4L1339 10L1335 10L1335 4L1334 4L1334 10L1330 10L1330 4L1329 4L1329 10L1326 10L1326 2L1324 2L1324 10L1320 10L1320 4L1319 4L1319 10L1315 10L1315 4L1314 4L1314 10L1310 10L1310 4L1309 4L1309 10L1305 10L1305 4L1304 4L1304 10L1301 10L1301 2L1299 2L1299 10L1295 10L1295 4L1294 4L1294 10L1290 10L1290 4L1289 4L1289 10L1285 10L1285 4L1284 4L1284 10L1280 10L1280 4L1279 4L1279 10L1276 10L1276 2L1274 2L1274 10L1270 10L1270 4L1269 4L1269 10L1265 10L1265 4L1264 4L1264 10L1260 10L1260 4L1259 4L1259 10L1255 10L1255 4L1254 4L1254 10L1251 10L1251 2L1249 2L1249 10L1245 10L1245 4L1244 4L1244 10L1240 10L1240 4L1239 4L1239 10L1235 10L1235 4L1234 4L1234 10L1230 10L1230 4L1229 4L1229 10L1226 10L1226 2L1224 2L1224 10L1220 10L1220 4L1219 4L1219 10L1215 10L1215 4L1214 4L1214 10L1210 10L1210 4L1209 4L1209 10L1205 10L1205 4L1204 4L1204 10L1201 10L1201 2L1199 2L1199 10L1195 10L1195 4L1194 4L1194 10L1190 10L1190 4L1189 4L1189 10L1185 10L1185 4L1184 4L1184 10L1180 10L1180 4L1179 4L1179 10L1176 10L1176 2L1174 2L1174 10L1170 10L1170 4L1169 4L1169 10L1165 10L1165 4L1164 4L1164 10L1160 10L1160 4L1159 4L1159 10L1155 10L1155 4L1154 4L1154 10L1151 10L1151 2L1149 2L1149 10L1145 10L1145 4L1144 4L1144 10L1140 10L1140 4L1139 4L1139 10L1135 10L1135 4L1134 4L1134 10L1130 10L1130 4L1129 4L1129 10L1126 10L1126 2L1124 2L1124 10L1120 10L1120 4L1119 4L1119 10L1115 10L1115 4L1114 4L1114 10L1110 10L1110 4L1109 4L1109 10L1105 10L1105 4L1104 4L1104 10L1101 10L1101 2L1099 2L1099 10L1095 10L1095 4L1094 4L1094 10L1090 10L1090 4L1089 4L1089 10L1085 10L1085 4L1084 4L1084 10L1080 10L1080 4L1079 4L1079 10L1076 10L1076 2L1074 2L1074 10L1070 10L1070 4L1069 4L1069 10L1065 10L1065 4L1064 4L1064 10L1060 10L1060 4L1059 4L1059 10L1055 10L1055 4L1054 4L1054 10L1051 10L1051 2L1049 2L1049 10L1045 10L1045 4L1044 4L1044 10L1040 10L1040 4L1039 4L1039 10L1035 10L1035 4L1034 4L1034 10L1030 10L1030 4L1029 4L1029 10L1026 10L1026 2L1024 2L1024 10L1020 10L1020 4L1019 4L1019 10L1015 10L1015 4L1014 4L1014 10L1010 10L1010 4L1009 4L1009 10L1005 10L1005 4L1004 4L1004 10L1001 10L1001 2L999 2L999 10L995 10L995 4L994 4L994 10L990 10L990 4L989 4L989 10L985 10L985 4L984 4L984 10L980 10L980 4L979 4L979 10L976 10L976 2L974 2L974 10L970 10L970 4L969 4L969 10L965 10L965 4L964 4L964 10L960 10L960 4L959 4L959 10L955 10L955 5L954 5L954 10L951 10L951 2Z" />
	</g>
</svg>